<svg width="30" height="30" viewBox="0 0 30 30" fill="none" xmlns="http://www.w3.org/2000/svg">
<g clip-path="url(#clip0_101_3107)">
<path d="M24.5833 5.83325H8.75C8.41848 5.83325 8.10054 5.96495 7.86612 6.19937C7.6317 6.43379 7.5 6.75173 7.5 7.08325V27.0833C7.5 27.4148 7.6317 27.7327 7.86612 27.9671C8.10054 28.2016 8.41848 28.3333 8.75 28.3333H24.5833C24.9149 28.3333 25.2328 28.2016 25.4672 27.9671C25.7016 27.7327 25.8333 27.4148 25.8333 27.0833V7.08325C25.8333 6.75173 25.7016 6.43379 25.4672 6.19937C25.2328 5.96495 24.9149 5.83325 24.5833 5.83325ZM24.1667 26.6666H9.16667V7.49992H24.1667V26.6666Z" fill="#EDF2FE"/>
<path d="M21.6663 2.91675C21.6663 2.58523 21.5346 2.26729 21.3002 2.03286C21.0658 1.79844 20.7479 1.66675 20.4163 1.66675H4.58301C4.25149 1.66675 3.93354 1.79844 3.69912 2.03286C3.4647 2.26729 3.33301 2.58523 3.33301 2.91675V22.9167C3.33301 23.2483 3.4647 23.5662 3.69912 23.8006C3.93354 24.0351 4.25149 24.1667 4.58301 24.1667H4.99967V3.33341H21.6663V2.91675Z" fill="#EDF2FE"/>
</g>
<defs>
<clipPath id="clip0_101_3107">
<rect width="30" height="30" fill="white"/>
</clipPath>
</defs>
</svg>
